<svg id="icon-pin" xmlns="http://www.w3.org/2000/svg" width="60.68" height="83.03" viewBox="0 0 60.68 83.03">
  <path id="Exclusion_5" data-name="Exclusion 5" d="M30.34,83.03h0c-.076-.09-7.7-9.156-15.169-20.06A148.674,148.674,0,0,1,4.741,45.642C1.595,39.31,0,34.162,0,30.34A30.348,30.348,0,0,1,58.3,18.53,30.15,30.15,0,0,1,60.68,30.34c0,3.822-1.595,8.97-4.741,15.3A148.674,148.674,0,0,1,45.51,62.968c-7.466,10.9-15.093,19.97-15.169,20.06ZM30,16a14,14,0,1,0,9.9,4.1A13.908,13.908,0,0,0,30,16Z" fill="#889b76"/>
</svg>
